<svg width="720" height="710" viewBox="0 0 720 710" fill="none" xmlns="http://www.w3.org/2000/svg">
<path fill-rule="evenodd" clip-rule="evenodd" d="M554.444 696.778C554.444 589.389 467.389 502.333 360 502.333C252.611 502.333 165.556 589.389 165.556 696.778H554.444Z" fill="url(#paint0_radial)"/>
<path fill-rule="evenodd" clip-rule="evenodd" d="M554.444 696.778C554.444 589.389 467.389 502.333 360 502.333C252.611 502.333 165.556 589.389 165.556 696.778H554.444Z" fill="url(#paint1_radial)"/>
<rect x="15" y="15" width="690" height="504.889" rx="15" fill="#1E1E1E"/>
<rect x="15" y="15" width="690" height="504.889" rx="15" stroke="#D7D7D7" stroke-width="10"/>
<rect x="15" y="15" width="690" height="504.889" rx="15" stroke="url(#paint2_linear)" stroke-width="10"/>
<path d="M359.873 129.956C359.873 129.956 457.257 -9.08708 547.608 100.199C645.262 240.595 359.873 476.48 359.873 476.48C359.873 476.48 74.7544 243.3 172.139 100.199C263.03 -8.81657 359.873 129.956 359.873 129.956Z" fill="#FF5959"/>
<path d="M359.875 137.059C359.875 137.059 452.187 5.25859 537.832 108.853C630.401 241.936 359.875 465.536 359.875 465.536C359.875 465.536 89.6066 244.5 181.919 108.853C268.076 5.51501 359.875 137.059 359.875 137.059Z" fill="#FF3636"/>
<path d="M359.879 157.316C359.879 157.316 444.076 45.9232 522.191 133.477C606.622 245.954 359.879 434.932 359.879 434.932C359.879 434.932 113.37 248.121 197.567 133.477C276.15 46.1399 359.879 157.316 359.879 157.316Z" fill="#E81B1B"/>
<defs>
<radialGradient id="paint0_radial" cx="0" cy="0" r="1" gradientUnits="userSpaceOnUse" gradientTransform="translate(258.5 599.556) rotate(-142.258) scale(117.536 162.206)">
<stop stop-color="#C6C6C6"/>
<stop offset="1" stop-color="#EFEFEF"/>
</radialGradient>
<radialGradient id="paint1_radial" cx="0" cy="0" r="1" gradientUnits="userSpaceOnUse" gradientTransform="translate(521.778 659.444) rotate(-13.1883) scale(146.588 310.48)">
<stop stop-color="#DBD9D9"/>
<stop offset="1" stop-color="white" stop-opacity="0"/>
</radialGradient>
<linearGradient id="paint2_linear" x1="10" y1="142.222" x2="717" y2="426.889" gradientUnits="userSpaceOnUse">
<stop stop-color="#DBDBDB"/>
<stop offset="1" stop-color="#D7D7D7"/>
</linearGradient>
</defs>
</svg>
